<svg xmlns="http://www.w3.org/2000/svg" width="167" height="33" viewBox="0 0 167 33">
  <g id="logo" transform="translate(-70 -25)">
    <path id="tart" d="M-31.127-1.883q0,.916,1.121.916V-.05h-7.846V-.966a.979.979,0,0,0,.637-.229.836.836,0,0,0,.28-.687V-22.145h-8.406a1.738,1.738,0,0,0-.892.255,1.026,1.026,0,0,0-.433.967h-.917V-28.05h.917a1.026,1.026,0,0,0,.433.967,1.738,1.738,0,0,0,.892.255h22.62a1.738,1.738,0,0,0,.892-.255,1.026,1.026,0,0,0,.433-.967h.917v7.127H-21.4a1.026,1.026,0,0,0-.433-.967,1.738,1.738,0,0,0-.892-.255h-8.406ZM.837-10.435-3.443-19.9l-4.789,9.469ZM-18.37-.966a1.491,1.491,0,0,0,1.044-.662A10.965,10.965,0,0,0-16.587-2.9l9.425-19.8q.357-.662.637-1.222a2.238,2.238,0,0,0,.28-.967.751.751,0,0,0-.357-.713,3,3,0,0,0-.764-.305v-.916h8.61v.916a4.138,4.138,0,0,0-.713.28.743.743,0,0,0-.357.738,2.017,2.017,0,0,0,.178.815q.178.407.535,1.069l10.6,20.72a1.742,1.742,0,0,0,.688.815,10.706,10.706,0,0,0,.993.509V-.05H4.2V-.966a1.2,1.2,0,0,0,.509-.153.489.489,0,0,0,.306-.458A3.169,3.169,0,0,0,4.607-2.9L2.671-6.668H-9.76l-1.834,3.615A4.273,4.273,0,0,0-12.1-1.526q0,.56.968.56V-.05H-18.37ZM33.718-14.915a14,14,0,0,0,3.057-.28,5.409,5.409,0,0,0,1.936-.789,2.948,2.948,0,0,0,1.019-1.2,3.654,3.654,0,0,0,.306-1.5,3.654,3.654,0,0,0-.306-1.5,2.948,2.948,0,0,0-1.019-1.2,5.409,5.409,0,0,0-1.936-.789,14,14,0,0,0-3.057-.28H24.9v7.535Zm1.325-11.913a20.882,20.882,0,0,1,4.432.433,10,10,0,0,1,3.413,1.375,6.32,6.32,0,0,1,2.191,2.444,8.076,8.076,0,0,1,.764,3.691,6.548,6.548,0,0,1-1.987,5.142,10.69,10.69,0,0,1-5.349,2.393l6.776,9.673a1.381,1.381,0,0,0,.841.611,4.355,4.355,0,0,0,.892.1V-.05H37.488V-.966a1.873,1.873,0,0,0,.79-.153q.331-.153.331-.407a1.155,1.155,0,0,0-.2-.585q-.2-.331-.611-.891l-5.6-7.942H24.9v9.062a.78.78,0,0,0,.331.687,2.237,2.237,0,0,0,1.2.229V-.05H17.618V-.966q1.477,0,1.477-.916V-25q0-.916-1.477-.916v-.916ZM68.769-1.883q0,.916,1.121.916V-.05H62.044V-.966a.979.979,0,0,0,.637-.229.836.836,0,0,0,.28-.687V-22.145H54.555a1.738,1.738,0,0,0-.892.255,1.026,1.026,0,0,0-.433.967h-.917V-28.05h.917a1.026,1.026,0,0,0,.433.967,1.738,1.738,0,0,0,.892.255h22.62a1.738,1.738,0,0,0,.892-.255,1.026,1.026,0,0,0,.433-.967h.917v7.127H78.5a1.026,1.026,0,0,0-.433-.967,1.738,1.738,0,0,0-.892-.255H68.769Z" transform="translate(157.583 56.05)" fill="#212121"/>
    <path id="s" d="M7.861-10.879l.627.308a1.928,1.928,0,0,0,.251.987,4.453,4.453,0,0,0,1.725,1.45,17.744,17.744,0,0,0,2.949,1.264,26.069,26.069,0,0,0,3.482.894,17.988,17.988,0,0,0,3.262.339q1.067,0,2.76-.154a16.675,16.675,0,0,0,3.325-.648,9.418,9.418,0,0,0,2.823-1.357,2.687,2.687,0,0,0,1.192-2.282,2.292,2.292,0,0,0-1.1-2.1,8.121,8.121,0,0,0-2.886-.987,31.729,31.729,0,0,0-4.078-.4q-2.29-.093-4.674-.278a43.286,43.286,0,0,1-4.674-.617,13.08,13.08,0,0,1-4.078-1.45,8.049,8.049,0,0,1-2.886-2.776,8.571,8.571,0,0,1-1.1-4.6,8.446,8.446,0,0,1,.91-3.763,9.177,9.177,0,0,1,2.792-3.269,15.486,15.486,0,0,1,4.768-2.313,22.974,22.974,0,0,1,6.776-.894,29.538,29.538,0,0,1,5.772.493,43.417,43.417,0,0,1,4.235,1.049q1.788.555,3.011,1.049a5.7,5.7,0,0,0,2.039.493,1.751,1.751,0,0,0,1.255-.37l.753.493L32.767-22.6l-.627-.247a3.363,3.363,0,0,0-.5-1.419,5.329,5.329,0,0,0-1.663-1.45,14.53,14.53,0,0,0-2.729-1.264,22.521,22.521,0,0,0-3.388-.894,19.812,19.812,0,0,0-3.639-.339A19.7,19.7,0,0,0,17.365-28a13.63,13.63,0,0,0-2.666.648,5.9,5.9,0,0,0-1.976,1.141,2.275,2.275,0,0,0-.784,1.758,2.5,2.5,0,0,0,1.1,2.221,8.079,8.079,0,0,0,2.886,1.11A27.588,27.588,0,0,0,20-20.624q2.29.123,4.674.308a38.709,38.709,0,0,1,4.674.648,13.65,13.65,0,0,1,4.078,1.48,8.138,8.138,0,0,1,2.886,2.745,8.279,8.279,0,0,1,1.1,4.5A7.828,7.828,0,0,1,35.685-5.7a12.143,12.143,0,0,1-4.3,3.207A19.623,19.623,0,0,1,25.835-.917a41.8,41.8,0,0,1-5.552.4,37.48,37.48,0,0,1-5.991-.4A22.694,22.694,0,0,1,10.276-1.9,27.148,27.148,0,0,1,7.735-2.952,3.82,3.82,0,0,0,6.1-3.415a1.046,1.046,0,0,0-.816.493L4.41-3.415Z" transform="translate(65.59 58.516)" fill="#dd1b57"/>
  </g>
</svg>
